<svg width="621" height="616" viewBox="0 0 621 616" fill="none" xmlns="http://www.w3.org/2000/svg">
<path d="M303.66 596.292C464.261 596.292 594.453 466.09 594.453 305.477C594.453 144.865 464.261 14.6626 303.66 14.6626C143.06 14.6626 12.8674 144.865 12.8674 305.477C12.8674 466.09 143.06 596.292 303.66 596.292Z" fill="#EC8C92"/>
<path d="M50.7206 243.632L49.2031 243.37C49.2802 242.923 57.276 198.342 88.1886 164.153L89.3287 165.185C58.7165 199.043 50.7976 243.193 50.7206 243.632Z" fill="white"/>
<path d="M92.8567 135.896L91.5857 135.033C91.8322 134.671 116.575 98.7793 156.269 81.2688L156.893 82.6786C117.615 100.004 93.1032 135.541 92.8567 135.896Z" fill="white"/>
<path d="M577.476 300.2H575.935C575.935 244.911 550.846 194.798 550.592 194.298L551.963 193.604C552.217 194.105 577.476 244.533 577.476 300.2Z" fill="white"/>
<path d="M547.48 271.373C546.293 249.348 539.122 230.813 539.052 230.628L540.485 230.066C540.555 230.251 547.811 249.009 549.02 271.288L547.48 271.373Z" fill="white"/>
<path d="M2.39118 233.155L0.881348 232.831C0.973785 232.385 10.7028 188.034 44.7969 143.214L46.0217 144.146C12.1356 188.697 2.48361 232.716 2.39118 233.155Z" fill="black"/>
<path d="M50.5512 109.21L49.3726 108.224C49.465 108.116 58.5008 97.3464 70.0246 86.4688L71.08 87.5858C59.6177 98.4018 50.6359 109.102 50.5512 109.21Z" fill="black"/>
<path d="M88.6508 87.532L87.48 86.5305C87.6109 86.3764 100.814 71.1231 126.011 53.9284C149.251 38.0665 187.752 17.2511 239.216 8.12219L239.486 9.63982C188.291 18.7225 149.991 39.43 126.881 55.1995C101.846 72.2786 88.7741 87.3779 88.6508 87.532Z" fill="black"/>
<path d="M593.714 206.362C580.75 153.514 539.615 107.893 539.199 107.438L540.339 106.398C540.755 106.853 582.152 152.775 595.208 205.992L593.714 206.362Z" fill="black"/>
<path d="M605.138 283.298C603.605 264.078 599.938 247.253 597.134 236.522L598.628 236.129C601.448 246.922 605.138 263.839 606.678 283.175L605.138 283.298Z" fill="black"/>
<path d="M613.495 355.944L611.993 355.598C613.318 349.866 614.474 343.649 615.429 337.124L616.954 337.348C615.991 343.911 614.82 350.167 613.495 355.944Z" fill="black"/>
<path d="M619.804 308.513L618.264 308.428C619.473 286.241 618.402 264.848 615.591 255.195L617.07 254.764C619.928 264.571 621.022 286.172 619.804 308.513Z" fill="black"/>
<path d="M595.563 378.701L594.099 378.231C596.803 369.819 599.099 358.109 600.924 343.449L602.449 343.642C600.616 358.394 598.297 370.188 595.563 378.701Z" fill="black"/>
<path d="M603.836 330.769L602.303 330.63C602.865 324.529 603.112 320.477 603.112 320.43L604.652 320.523C604.645 320.561 604.398 324.652 603.836 330.769Z" fill="black"/>
<path d="M447.848 40.4469C407.476 14.7474 339.858 5.91891 339.18 5.83417L339.372 4.30884C339.542 4.33195 356.666 6.53521 378.581 11.9047C398.825 16.8659 427.411 25.6173 448.68 39.1527L447.848 40.4469Z" fill="black"/>
<path d="M414.169 12.7829C403.339 8.0066 378.173 2.32897 377.918 2.27505L378.257 0.772827C378.512 0.826753 403.824 6.5352 414.793 11.3808L414.169 12.7829Z" fill="black"/>
<path d="M86.4321 527.791C83.166 525.21 79.9385 522.506 76.8418 519.764L77.8663 518.608C80.9475 521.335 84.152 524.024 87.395 526.581L86.4321 527.791Z" fill="black"/>
<path d="M60.4035 503.601C16.2569 455.453 7.79885 402.914 7.71411 402.39L9.23936 402.159C9.31639 402.683 17.7205 454.775 61.5359 502.561L60.4035 503.601Z" fill="black"/>
<path d="M72.5051 499.618C56.6983 486.584 41.9237 456.84 41.7773 456.539L43.1562 455.861C43.3025 456.154 57.9385 485.605 73.4834 498.432L72.5051 499.618Z" fill="black"/>
<path d="M225.612 598.534C203.142 594.235 180.942 586.593 159.627 575.816L160.321 574.437C181.512 585.145 203.574 592.741 225.905 597.016L225.612 598.534Z" fill="black"/>
<path d="M132.405 559.938C121.358 552.543 115.173 547.058 115.111 547.004L116.136 545.856C116.197 545.91 122.314 551.333 133.26 558.66L132.405 559.938Z" fill="black"/>
<path d="M317.611 614.72L317.534 613.179C323.234 612.901 328.811 612.47 334.103 611.9L334.273 613.433C328.95 614.011 323.342 614.442 317.611 614.72Z" fill="black"/>
<path d="M297.359 615.074C262.094 614.689 232.545 609.404 232.245 609.35L232.522 607.832C232.815 607.886 262.249 613.156 297.375 613.533L297.359 615.074Z" fill="black"/>
<path d="M128.815 514.001C80.2235 479.928 62.3215 425.879 62.1443 425.339L63.6079 424.862C63.7851 425.401 81.5408 478.973 129.701 512.738L128.815 514.001Z" fill="white"/>
<path d="M235.056 572.958C196.918 566.255 158.734 540.725 158.356 540.463L159.219 539.185C159.597 539.439 197.519 564.792 235.326 571.432L235.056 572.958Z" fill="white"/>
<path d="M172.314 526.651C162.162 523.469 149.906 512.106 149.39 511.628L150.438 510.504C150.561 510.619 162.955 522.105 172.769 525.187L172.314 526.651Z" fill="white"/>
</svg>
