<svg width="622" height="619" viewBox="0 0 622 619" fill="none" xmlns="http://www.w3.org/2000/svg">
<path d="M366.786 23.3551C359.044 28.0697 325.374 47.7758 301.071 66.3109C297.204 69.2614 294.323 73.3059 292.805 77.9281C289.655 87.55 286.828 98.2351 286.027 101.332C285.842 102.048 285.934 102.811 286.304 103.45C288.576 107.456 301.032 121.246 368.897 145.251L384.827 110.792C384.827 110.792 374.767 46.6742 371.678 25.2579C371.362 23.1086 368.889 22.0763 366.786 23.3551Z" fill="white"/>
<path d="M520.063 408.725L436.523 418.54C422.973 420.134 411.125 428.431 405.001 440.626L367.61 515.76C366.016 518.934 362.472 520.621 359.006 519.859L345.718 516.931C336.397 514.874 327.084 520.406 324.427 529.573L322.347 536.761C321.191 540.743 323.009 544.981 326.691 546.891L388.031 578.684C392.099 580.787 397.098 579.378 399.463 575.456L461.111 475.054L546.315 469.685L520.063 408.725Z" fill="#274D76"/>
<path d="M472.781 344.569L478.874 329.285L529.276 331.989L510.966 401.191L472.781 344.569Z" fill="#274D76"/>
<path d="M466.418 307.63C466.418 307.63 471.957 293.293 471.872 285.505C471.764 275.143 472.889 254.058 466.287 255.052C462.266 255.653 461.065 265.406 460.572 269.596C460.379 271.253 459.74 272.84 458.63 274.088C457.051 275.867 454.81 276.553 453.631 268.487C451.713 255.344 452.129 230.053 444.495 234.683C440.628 237.033 442.7 259.998 440.513 258.981C438.325 257.964 438.595 223.282 429.289 227.064C426.216 228.312 426.909 244.883 427.541 254.15C427.579 254.667 426.824 254.774 426.709 254.266C425.453 248.665 423.527 240.507 421.987 235.723C420.33 230.569 416.479 233.266 416.479 237.025C416.479 245.114 417.85 262.147 417.85 262.147L466.418 307.63Z" fill="#274D76"/>
<path d="M595.792 353.644L609.658 377.525L577.305 481.525C574.27 492.072 562.207 498.651 551.376 496.848L509.733 492.226C504.387 491.332 502.469 494.075 504.341 499.159L522.312 581.627C525.363 589.924 520.633 599.045 512.09 601.333L450.126 617.896C444.125 619.499 438.132 615.308 437.585 609.122L434.019 587.836C433.873 586.211 433.41 579.686 437.1 577.051C442.492 573.199 450.966 567.807 450.966 567.807C453.824 566.274 454.116 561.69 453.277 558.562L429.736 467.012C425.892 452.69 434.805 441.589 449.433 439.155C467.92 436.073 498.733 429.14 498.733 429.14L511.928 343.051C513.661 336.218 519.97 331.542 527.019 331.881L547.263 332.844L595.792 353.644Z" fill="#FFF3A1"/>
<path d="M587.838 331.011C592.047 313.186 581.01 295.323 563.186 291.114C545.362 286.905 527.501 297.944 523.292 315.769C519.083 333.594 530.121 351.457 547.945 355.666C565.769 359.875 583.63 348.837 587.838 331.011Z" fill="#FFF3A1"/>
<path d="M254.413 322.937L364.614 223.235C370.306 218.082 378.634 218.49 385.374 222.165C399.001 229.599 422.372 242.888 443.217 265.475C460.718 284.441 489.797 314.555 493.233 340.047C493.626 342.966 492.609 345.894 490.568 348.012C456.967 382.825 388.617 446.943 380.975 453.461C362.888 468.891 315.984 434.055 289.262 402.994C278.1 390.028 240.447 336.11 254.413 322.937Z" fill="white"/>
<path d="M613.432 359.745C603.203 349.676 585.717 350.277 574.932 359.522L536.702 394.342C534.606 396.083 531.502 395.814 529.738 393.741L502.654 362.079C498.294 356.972 495.659 350.624 495.12 343.937L494.142 331.865C494.073 331.049 493.88 330.247 493.556 329.493L488.619 316.781C487.941 315.033 485.584 314.817 484.559 316.389C483.173 318.522 482.418 321.735 482.418 324.924C482.418 331.087 483.866 337.743 481.555 337.743C478.474 337.743 474.815 331.688 473.251 326.003C471.456 319.462 470.563 314.247 467.397 311.35C465.964 310.041 463.414 310.904 463.021 313.084C462.105 318.106 463.16 327.567 463.245 332.936C463.268 334.477 461.889 334.446 461.465 332.574C460.163 326.773 456.612 309.047 456.612 309.047C456.05 306.713 452.83 306.443 451.898 308.662C449.233 315.033 450.226 328.892 450.712 334.045C450.758 334.5 450.142 334.685 449.934 334.284C448.647 331.881 446.375 327.151 444.749 321.126C444.387 319.786 442.554 319.493 441.876 320.703C439.835 324.377 440.875 333.152 441.422 336.757C441.476 337.096 441.013 337.25 440.844 336.957C439.958 335.401 439.28 333.93 438.595 332.173C437.709 329.901 435.806 331.203 435.644 332.643C435.105 337.504 434.828 344.453 436.892 353.359C437.639 356.571 440.343 366.208 452.46 380.699L517.166 452.344C528.721 466.981 543.527 463.121 551.831 456.966C572.629 441.558 611.021 403.602 611.021 403.602C625.626 391.276 622.568 368.735 613.432 359.745Z" fill="#FFF3A1"/>
<path d="M324.072 382.386C285.403 341.048 265.243 329.131 255.399 328.029C253.219 327.782 251.332 329.485 251.347 331.68C251.463 351.818 279.825 392.039 289.254 403.009C310.777 428.038 345.418 455.518 367.526 457.174C369.22 457.297 370.591 455.826 370.399 454.146C369.058 442.329 359.722 420.497 324.072 382.386Z" fill="#F2BDBA"/>
<path d="M286.635 104.013C289.693 111.378 324.835 134.034 368.881 145.258L370.191 142.431C353.098 127.447 323.548 112.41 301.61 106.748C293.568 104.675 289.185 103.712 286.635 104.013Z" fill="#F2BDBA"/>
<path d="M370.984 38.2001C366.948 34.8336 362.149 32.5995 356.734 31.5595L357.026 30.0496C362.704 31.1435 367.726 33.4854 371.97 37.0137L370.984 38.2001Z" fill="black"/>
<path d="M429.882 293.732L413.575 280.073C411.018 277.932 407.697 276.938 404.385 277.338C391.174 278.925 356.633 283.571 345.056 289.934C340.765 292.291 331.475 302.583 331.475 302.583C328.109 306.073 328.093 311.597 331.444 315.11L352.643 338.537C354.114 340.162 356.595 340.347 358.29 338.96L375.236 325.078C377.07 323.576 377.255 320.834 375.637 319.092L372.225 315.441C370.861 314.162 371.493 311.874 373.326 311.481L428.434 299.648C431.177 299.04 432.047 295.542 429.882 293.732ZM404.485 317.621C401.835 315.741 398.538 315.58 396.043 317.644L344.848 359.93C341.766 362.472 341.574 368.658 344.185 371.686C346.211 374.035 350.294 378.719 352.273 381.123C355.932 385.568 361.941 385.706 364.891 383.018L378.711 370.422C379.966 369.282 381.907 369.359 383.063 370.599L385.99 373.743C388.062 375.915 391.482 376.023 393.685 373.989L408.945 359.891C411.834 357.218 411.857 352.658 408.984 349.961L407.574 348.636C406.257 347.404 406.272 345.3 407.605 344.091L414.63 337.689C417.249 335.301 418.181 329.947 414.877 326.827C414.884 326.827 407.913 320.063 404.485 317.621Z" fill="#93B4F6"/>
<path d="M292.882 108.134C302.596 115.784 327.985 129.697 359.345 139.873L360.377 137.709C347.42 126.7 317.91 113.026 293.514 106.848C292.751 106.655 292.258 107.649 292.882 108.134Z" fill="black"/>
<path d="M257.941 336.033C262.347 330.456 301.279 366.778 314.474 380.237C337.06 403.263 369.86 447.829 361.956 449.909C357.034 451.203 326.583 434.147 294.438 397.809C269.981 370.153 255.222 339.477 257.941 336.033Z" fill="black"/>
<path d="M518.053 14.6344L516.912 7.7165C515.965 1.96184 510.272 -0.857716 504.772 1.09903C497.562 3.65665 488.211 6.69192 483.142 10.6362C481.131 12.2001 480.038 14.6653 480.246 17.1998C482.102 39.7177 484.228 57.2667 485.237 65.0167C485.592 67.7669 484.683 70.5325 482.757 72.5278L460.264 95.9239L483.073 107.587L525.771 67.7977L518.053 14.6344Z" fill="#274D76"/>
<path d="M368.889 145.258L385.204 109.968C388.031 103.859 393.994 99.8143 400.711 99.4368L434.52 97.5648C442.839 97.1026 450.935 94.6991 458.161 90.5468C464.077 87.1494 471.356 87.1803 477.241 90.6392C481.108 92.9118 485.992 92.4881 489.412 89.5838L501.622 79.2146C503.024 78.0205 503.779 76.241 503.663 74.4075C503.016 64.593 500.959 32.4531 500.697 16.7838C500.659 14.6036 501.884 12.593 503.84 11.6377C511.967 7.67032 524.693 5.73669 534.445 7.40069C536.856 7.80899 538.743 9.78883 538.897 12.2309C539.552 22.9236 532.249 34.3791 532.249 34.3791L538.681 82.7352C540.099 93.3971 535.546 103.974 526.834 110.276L486.215 139.642C483.134 141.869 479.93 143.933 476.617 145.805C468.752 150.266 460.341 153.686 451.598 155.974L420.469 164.117L368.889 145.258Z" fill="#FFF3A1"/>
<path d="M382.886 113.55L401.797 110.684L416.494 126.3L388.008 153.409L372.941 136.384L382.886 113.55Z" fill="#274D76"/>
<path d="M429.149 104.711C432.851 90.5505 424.373 76.0708 410.213 72.3693C396.054 68.6679 381.576 77.1464 377.874 91.3067C374.173 105.467 382.651 119.947 396.81 123.648C410.97 127.35 425.448 118.871 429.149 104.711Z" fill="#FFF3A1"/>
<path d="M335.666 88.2895L340.68 80.5473C341.528 79.2377 341.011 77.4812 339.586 76.8418L337.491 75.902C336.228 75.3319 336.066 73.6063 337.206 72.8128L359.599 57.2898C360.731 56.504 360.477 54.763 359.168 54.3239L348.915 50.942C347.698 50.5414 346.373 50.7186 345.302 51.4273L323.256 66.0258C321.9 66.9194 320.806 68.152 320.067 69.5926L316.97 75.6323C315.406 78.683 316.747 82.4193 319.89 83.7752L332.515 89.2371C333.663 89.7378 334.995 89.3295 335.666 88.2895ZM362.141 84.8691L361.001 84.1603C359.984 83.5286 359.599 82.2421 360.092 81.1559L361.602 77.8433C362.488 75.902 361.733 73.6063 359.869 72.5663L354.808 69.7467C352.82 68.6451 350.317 69.3615 349.231 71.3568L333.94 99.2288C332.923 101.085 333.486 103.412 335.242 104.598L340.657 108.242C342.652 109.583 345.371 108.92 346.535 106.817L350.918 98.8282C351.572 97.6418 353.082 97.2412 354.238 97.9423L354.839 98.312C356.156 99.1209 357.881 98.6279 358.575 97.2489L363.096 88.3126C363.728 87.0877 363.304 85.5932 362.141 84.8691Z" fill="#93B4F6"/>
<path d="M448.809 111.293C441.399 104.675 430.098 105.068 423.158 112.171L402.529 133.295C400.919 134.943 398.546 135.598 396.32 135.013L365.654 126.962C363.535 126.408 361.617 125.267 360.115 123.673L351.311 114.336C350.579 113.558 349.261 113.696 348.792 114.652C348.306 115.63 348.006 117.232 348.507 119.829C349.616 125.606 346.265 125.591 342.86 122.864C341.104 121.462 338.385 119.274 336.166 117.479C334.479 116.115 331.991 117.333 331.983 119.497C331.968 122.132 332.345 125.152 333.863 126.839C330.766 136.13 335.966 147.161 344.201 151.614C353.706 156.752 404.94 172.584 404.94 172.584C409.916 174.055 415.3 172.676 418.959 169.001L449.595 138.233C457.113 130.698 456.751 118.388 448.809 111.293Z" fill="#FFF3A1"/>
<path d="M387.492 80.4473C384.211 82.8277 381.653 86.2559 380.136 90.3388C376.715 99.5448 379.943 109.436 387.153 115.345C391.036 118.527 396.959 119.282 402.844 115.646C406.673 113.28 409.569 109.475 411.249 104.96C414.191 97.0488 412.204 88.8443 406.95 82.9664C402.636 78.1516 392.961 76.4722 387.492 80.4473Z" fill="black"/>
<path d="M195.661 378.85C192.719 367.634 189.445 353.182 187.719 348.274C187.65 348.082 187.411 347.55 187.234 347.435C185.686 346.402 176.596 342.05 166.073 343.806C162.815 344.353 151.63 343.313 147.155 346.71C145.768 347.758 145.244 349.53 145.121 351.263C144.489 360.608 142.933 389.481 143.195 399.227C143.241 400.975 144.443 402.547 146.161 402.894C165.118 406.753 187.165 404.974 196.986 397.555C198.072 396.731 198.681 395.429 198.558 394.065C198.311 391.454 197.633 386.361 195.661 378.85Z" fill="white"/>
<path d="M87.3398 304.024L56.0188 294.233C54.3935 293.724 53.3767 292.106 53.6155 290.419L58.453 256.577C58.792 254.189 57.1358 251.978 54.7478 251.631L35.1819 248.642C34.2652 248.511 32.2932 249.197 32.2932 251.831C32.2932 253.118 32.6476 253.834 33.3023 254.62L36.8381 258.88C37.5005 259.674 37.7856 260.722 37.6161 261.738L33.4333 287.623L47.7534 318.122L82.5484 321.843L87.3398 304.024Z" fill="#274D76"/>
<path d="M25.4606 260.359L52.6835 303.184C53.4153 304.34 54.5861 305.156 55.9188 305.457L62.0197 306.813C64.0456 307.26 66.1639 306.905 67.928 305.827L70.2851 304.386C74.9609 301.52 80.6535 300.85 85.8685 302.553L123.213 314.732L112.298 348.775L75.477 339.792C72.2802 339.014 69.1374 338.059 66.0484 336.927C61.4573 335.247 54.7402 332.682 50.6499 330.671C40.1043 325.487 36.6455 321.45 34.9278 318.23C29.4662 307.991 15.9704 284.788 14.268 282.045C12.0572 278.486 7.19652 278.178 4.61598 277.508C3.02143 277.092 1.85056 276.391 1.2035 274.873L0.872268 274.103C0.479409 273.186 0.787543 272.123 1.60407 271.553L19.4907 259.057C21.4781 257.671 24.2281 258.264 25.4606 260.359Z" fill="#FFF3A1"/>
<path d="M139.867 338.036L172.821 338.013C175.51 337.998 178.283 338.799 179.7 340.424C180.548 341.395 182.057 343.49 182.858 344.499C183.413 345.208 183.213 346.125 182.412 345.932L178.414 344.499L179.122 346.949C179.608 348.274 178.398 348.875 177.374 348.359L173.391 346.479C173.491 347.589 172.321 348.374 171.327 347.858C169.494 346.903 168.793 346.287 166.258 344.561C165.627 344.137 164.879 343.922 164.117 343.96C157.323 344.299 152.531 345.147 148.387 346.841C145.313 348.097 145.236 351.294 145.182 352.296C145.09 353.983 142.81 359.036 142.81 359.036L121.357 354.622L117.559 340.339L139.867 338.036Z" fill="#274D76"/>
<path d="M127.342 341.842C136.685 341.842 144.258 333.95 144.258 324.215C144.258 314.481 136.685 306.589 127.342 306.589C118 306.589 110.426 314.481 110.426 324.215C110.426 333.95 118 341.842 127.342 341.842Z" fill="#FFF3A1"/>
<path d="M134.699 365.831C134.699 365.831 124.292 384.212 122.728 395.074C122.227 398.572 124.777 401.784 128.29 402.2C131.402 402.562 136.216 402.739 143.465 402.162C142.417 398.888 144.805 369.783 145.83 358.019C145.968 356.44 144.019 355.593 142.949 356.764L134.699 365.831Z" fill="white"/>
<path d="M170.225 357.072C172.452 361.709 180.856 379.405 182.651 386.508C182.874 387.386 182.181 388.218 181.279 388.164C173.06 387.617 165.126 388.819 161.744 389.435C160.882 389.589 160.111 388.888 160.181 388.018L162.476 359.676C162.515 359.175 162.838 358.736 163.3 358.551L168.515 356.425C169.17 356.155 169.917 356.44 170.225 357.072Z" fill="white"/>
<path d="M180.717 380.784C176.912 370.831 169.678 355.947 169.678 355.947L167.976 356.64L176.049 388.025C178.291 388.002 180.632 388.141 182.974 388.364C182.866 386.87 181.98 384.104 180.717 380.784Z" fill="#93B4F6"/>
<path d="M182.982 388.364C182.974 388.233 176.766 383.195 176.766 383.195C175.702 382.386 174.27 382.278 173.107 382.918L160.974 389.566C163.901 389.004 173.438 387.44 182.982 388.364Z" fill="#274D76"/>
<path d="M121.603 329.392C121.318 332.466 122.004 335.355 123.367 337.782C124.284 339.407 126.009 340.455 127.881 340.455C127.889 340.455 127.904 340.455 127.912 340.455C136.339 340.455 143.172 333.337 143.172 324.555C143.172 324.539 143.172 324.516 143.172 324.501C143.157 320.795 140.507 317.644 137.002 317.059C135.931 316.882 134.814 316.835 133.666 316.936C127.334 317.513 122.212 322.806 121.603 329.392Z" fill="black"/>
<path d="M176.18 359.321L172.544 359.745C172.251 359.776 172.105 359.406 172.336 359.229L175.386 356.926C176.58 356.024 175.864 354.129 174.377 354.245C171.073 354.499 166.813 354.853 163.77 355.177C163.269 355.231 163.046 354.553 163.485 354.299C164.849 353.52 165.565 353.143 166.982 352.349C169.008 351.209 167.013 349.607 164.695 349.692C160.358 349.861 156.036 352.473 152.747 352.473C146.8 352.473 130.339 351.672 130.339 351.672C129.037 351.625 127.827 350.963 127.096 349.884L113.723 330.094C109.979 325.148 102.916 324.231 98.0394 328.06C93.4099 331.688 92.4161 338.306 95.7824 343.136L115.364 368.227C117.174 370.546 119.924 371.948 122.867 372.048L165.503 371.401C170.587 371.408 174.162 366.802 174.616 364.406C175.926 363.52 176.858 362.549 177.528 361.671C178.306 360.639 177.474 359.167 176.18 359.321Z" fill="#FFF3A1"/>
<path d="M123.714 177.021C123.714 177.021 127.334 190.626 136.463 209.068C149.404 235.207 155.72 245.676 162.376 256.901C170.48 270.567 195.222 284.426 242.958 254.851C292.42 224.214 284.879 204.03 281.597 197.004C279.656 192.844 263.903 163.401 250.831 141.052C245.731 132.332 240.917 124.882 237.713 120.075C235.047 116.077 230.764 113.481 225.988 112.941C212.97 111.47 185.393 111.616 157.038 132.162C117.944 160.496 123.714 177.021 123.714 177.021Z" fill="white"/>
<path d="M283.585 211.965C284.886 205.394 282.052 198.676 276.528 194.87C262.524 185.21 235.093 184.794 200.314 206.765C162.099 230.908 161.213 251.338 166.898 262.655C178.036 273.648 202.055 280.189 242.951 254.851C272.261 236.701 281.551 222.218 283.585 211.965Z" fill="#F2BDBA"/>
<path d="M174.054 261.908C169.301 255.105 169.209 233.797 204.882 210.848C240.84 187.713 272.384 194.292 277.021 206.765C281.659 219.237 255.822 242.079 227.044 256.7C201.007 269.935 179.323 269.45 174.054 261.908Z" fill="black"/>
<path d="M143.164 397.216C140.029 397.208 136.725 397.378 133.42 397.64C125.979 398.233 124.977 400.575 125.678 401.291C126.333 401.962 127.327 402.324 128.29 402.431C131.402 402.794 137.826 403.002 144.667 402.2C143.164 400.544 143.172 399.743 143.164 397.216Z" fill="black"/>
<path d="M195.492 351.348C193.265 348.598 191.994 348.937 187.927 348.875C189.653 354.838 192.657 367.403 195.661 378.858C198.665 390.306 198.681 396.13 198.681 396.13C202.455 395.629 205.498 395.067 212.885 393.826C218.917 392.809 219.456 387.817 216.336 383.195L195.492 351.348Z" fill="white"/>
<path d="M195.73 398.441C196.162 397.347 195.453 396.253 193.643 395.359C190.046 393.572 183.005 392.17 169.286 392.94C156.637 393.649 150.22 396.777 146.993 399.535C145.267 401.014 145.383 402.154 146.908 403.078C165.919 407.693 185.585 405.12 195.73 398.441Z" fill="#F2BDBA"/>
<path d="M213.671 393.965C215.196 393.572 215.435 391.939 214.642 391.369C214.303 391.13 213.902 390.883 213.425 390.637C209.673 388.711 203.68 388.734 197.949 389.42C198.673 393.872 198.804 394.943 197.988 396.453C202.656 396.13 213.217 394.08 213.671 393.965Z" fill="black"/>
<path d="M169.27 172.514C167.029 166.875 166.959 160.589 169.601 156.467C170.218 155.504 171.35 153.933 170.78 152.947L165.819 145.751C164.772 143.933 162.037 145.074 160.781 146.761C154.596 155.104 152.285 165.974 156.907 177.576C163.693 194.639 176.295 199.631 189.283 196.457C191.386 195.941 192.41 193.561 191.324 191.689L187.534 185.41C186.702 183.97 185.108 183.176 183.444 183.307C177.836 183.762 172.29 180.095 169.27 172.514ZM206.268 152.384C196.447 136.831 180.84 134.458 170.618 138.341C168.831 139.018 168.022 141.091 168.977 142.747L174.555 150.304C175.217 151.445 176.527 151.999 177.813 151.753C183.267 150.697 189.968 152.808 194.382 159.479C197.887 164.78 197.88 173.077 192.318 178.408C191.101 179.578 191.224 181.589 192.071 183.053L195.63 189.193C197.04 191.619 200.191 191.85 202.34 190.055C212.415 181.643 213.155 163.293 206.268 152.384Z" fill="#93B4F6"/>
<path d="M426.293 151.298C425.761 151.298 425.222 151.16 424.729 150.875C420.954 148.679 414.145 144.388 410.948 140.405C410.047 139.28 410.07 137.64 411.017 136.499L421.024 124.435C422.079 123.157 423.951 122.933 425.284 123.919C428.427 126.253 434.15 130.568 437.193 133.264C438.418 134.35 438.61 136.153 437.639 137.462C434.142 142.192 430.653 147.308 428.889 149.927C428.28 150.813 427.294 151.298 426.293 151.298ZM423.42 124.844C422.965 124.844 422.511 125.036 422.202 125.414L412.196 137.478C411.718 138.056 411.695 138.872 412.15 139.435C415.308 143.371 422.541 147.816 425.507 149.542C426.223 149.958 427.14 149.75 427.602 149.064C429.382 146.429 432.879 141.299 436.392 136.538C436.877 135.875 436.784 134.959 436.16 134.412C433.164 131.754 427.479 127.471 424.352 125.152C424.074 124.944 423.743 124.844 423.42 124.844Z" fill="black"/>
<path d="M571.89 425.55C571.697 425.55 571.504 425.542 571.304 425.519C569.702 425.365 568.261 424.587 567.252 423.339L550.652 402.732C548.68 400.282 548.965 396.715 551.292 394.604L569.64 378.018C570.85 376.924 572.406 376.385 574.023 376.5C575.649 376.616 577.112 377.363 578.16 378.604L595.723 399.535C597.826 402.038 597.495 405.782 594.999 407.885L575.695 424.14C574.617 425.065 573.284 425.55 571.89 425.55ZM552.331 395.752C550.606 397.316 550.398 399.951 551.854 401.769L568.454 422.376C569.201 423.3 570.264 423.878 571.451 423.994C572.637 424.109 573.792 423.747 574.701 422.985L594.005 406.73C595.854 405.174 596.093 402.4 594.544 400.544L576.981 379.613C576.211 378.688 575.117 378.134 573.916 378.057C572.714 377.98 571.558 378.372 570.673 379.181L552.331 395.752Z" fill="black"/>
<path d="M481.208 389.412L480.007 388.449L488.657 377.595C489.166 376.955 488.988 376.285 488.65 375.869C488.311 375.453 487.687 375.145 486.955 375.515L477.18 380.545C475.901 381.2 474.453 380.884 473.559 379.767C472.666 378.65 472.696 377.163 473.621 376.069L482.318 365.8C482.857 365.161 482.68 364.475 482.341 364.051C481.994 363.628 481.37 363.304 480.631 363.697L455.434 376.524L454.733 375.153L479.922 362.326C481.185 361.656 482.649 361.964 483.542 363.081C484.444 364.206 484.421 365.692 483.496 366.794L474.799 377.063C474.26 377.695 474.43 378.38 474.769 378.804C475.107 379.228 475.731 379.551 476.471 379.174L486.238 374.143C487.494 373.496 488.935 373.797 489.828 374.883C490.722 375.969 490.729 377.448 489.851 378.55L481.208 389.412Z" fill="black"/>
<path d="M523.146 405.385L511.902 435.708L513.346 436.243L524.59 405.921L523.146 405.385Z" fill="black"/>
<path d="M540.786 411.972L539.332 412.484L552.301 449.334L553.754 448.823L540.786 411.972Z" fill="black"/>
<path d="M540.249 437.484L538.725 437.709L541.4 455.825L542.924 455.599L540.249 437.484Z" fill="black"/>
<path d="M522.915 430.499L520.145 445.014L521.658 445.302L524.428 430.788L522.915 430.499Z" fill="black"/>
<path d="M399.616 139.537L398.261 140.272L412.239 166.028L413.593 165.293L399.616 139.537Z" fill="black"/>
<path d="M399.703 153.224L398.222 153.65L402.539 168.665L404.019 168.239L399.703 153.224Z" fill="black"/>
<path d="M392.736 141.979L391.4 164.543L392.938 164.634L394.274 142.07L392.736 141.979Z" fill="black"/>
<path d="M352.019 150.728L350.532 150.327L354.492 135.521C354.738 134.589 355.578 134.011 356.541 134.111C357.496 134.211 358.197 134.959 358.251 135.914L358.69 144.781C358.706 145.027 358.875 145.104 358.983 145.127C359.091 145.151 359.276 145.158 359.391 144.935L365.107 133.657L366.478 134.35L360.77 145.628C360.369 146.414 359.53 146.815 358.667 146.63C357.804 146.445 357.203 145.736 357.157 144.858L356.718 135.991C356.703 135.714 356.502 135.652 356.387 135.644C356.271 135.629 356.063 135.652 355.994 135.914L352.019 150.728Z" fill="black"/>
<path d="M510.389 73.1962L510.146 74.7177L532.693 78.3117L532.935 76.7902L510.389 73.1962Z" fill="black"/>
<path d="M511.937 80.0975L511.376 81.5327L532.544 89.8004L533.105 88.3652L511.937 80.0975Z" fill="black"/>
<path d="M512.235 86.0475L511.068 87.0525L526.036 104.448L527.204 103.443L512.235 86.0475Z" fill="black"/>
<path d="M489.296 499.082L489.212 499.074L445.165 494.036L445.343 492.503L489.343 497.533C490.406 497.518 490.984 496.786 491.176 496.108C491.369 495.423 491.238 494.483 490.298 493.928L439.611 470C438.032 469.061 437.439 467.296 438.102 465.663C438.764 464.03 440.428 463.175 442.138 463.591L482.341 472.535C483.496 472.812 484.259 472.134 484.567 471.464C484.867 470.809 484.898 469.815 484.004 469.122L450.326 452.474L451.012 451.095L484.867 467.843C486.454 469.007 486.562 470.825 485.969 472.111C485.376 473.398 483.92 474.492 482.002 474.037L441.799 465.093C440.59 464.8 439.827 465.532 439.534 466.249C439.242 466.957 439.28 468.013 440.335 468.645L491.022 492.572C492.47 493.435 493.086 494.968 492.663 496.524C492.224 498.08 490.906 499.082 489.296 499.082Z" fill="black"/>
<path d="M109.949 353.721C109.787 353.721 109.625 353.713 109.463 353.69C108.5 353.551 107.645 353.004 107.114 352.188L103.077 346.002C102.068 344.461 102.492 342.365 104.025 341.341L109.409 337.728C110.95 336.695 113.045 337.104 114.085 338.629L117.821 344.099C118.799 345.532 118.538 347.458 117.22 348.582L112.144 352.912C111.528 353.443 110.75 353.721 109.949 353.721ZM111.297 338.706C110.942 338.706 110.588 338.806 110.272 339.014L104.888 342.627C104.056 343.19 103.825 344.322 104.372 345.17L108.408 351.356C108.701 351.802 109.163 352.095 109.687 352.172C110.218 352.249 110.742 352.095 111.143 351.749L116.219 347.419C116.935 346.803 117.082 345.755 116.542 344.977L112.806 339.507C112.467 338.983 111.882 338.706 111.297 338.706Z" fill="black"/>
<path d="M124.552 354.306L116.118 363.146L117.233 364.21L125.666 355.37L124.552 354.306Z" fill="black"/>
<path d="M121.982 362.409L119.734 366.952L121.115 367.635L123.363 363.092L121.982 362.409Z" fill="black"/>
<path d="M128.145 354.141L125.001 369.145L126.509 369.461L129.653 354.457L128.145 354.141Z" fill="black"/>
<path d="M145.683 366.255C145.645 366.255 145.614 366.255 145.575 366.255C144.551 366.208 143.681 365.554 143.357 364.583L141.986 360.438L143.449 359.953L144.821 364.098C145.005 364.645 145.491 364.714 145.637 364.714C145.783 364.714 146.276 364.699 146.508 364.167L147.84 361.047C148.164 360.292 148.834 359.753 149.643 359.606C150.452 359.46 151.268 359.714 151.838 360.3L155.867 364.429C156.221 364.791 156.653 364.752 156.945 364.591C157.238 364.429 157.508 364.082 157.392 363.589L155.52 355.577L157.022 355.231L158.894 363.243C159.148 364.321 158.663 365.407 157.693 365.939C156.714 366.47 155.543 366.293 154.765 365.5L150.737 361.371C150.521 361.147 150.22 361.055 149.928 361.116C149.627 361.17 149.381 361.371 149.265 361.648L147.933 364.768C147.54 365.685 146.669 366.255 145.683 366.255Z" fill="black"/>
<path d="M46.3812 304.491L35.3496 308.277L35.8497 309.734L46.8813 305.948L46.3812 304.491Z" fill="black"/>
<path d="M43.3293 309.402L37.3984 314.343L38.3844 315.526L44.3153 310.586L43.3293 309.402Z" fill="black"/>
<path d="M47.7257 309.701L43.1152 321.563L44.5513 322.121L49.1617 310.259L47.7257 309.701Z" fill="black"/>
<path d="M6.40321 275.135C6.23374 275.135 6.05658 275.12 5.88712 275.081L4.55444 274.789L4.88567 273.286L6.21834 273.579C6.46484 273.633 6.71903 273.579 6.91931 273.44C7.12729 273.294 7.25828 273.078 7.28909 272.824L7.42774 271.746C7.52018 271.06 7.89761 270.444 8.46764 270.051C9.03768 269.658 9.75405 269.535 10.4242 269.696L13.0741 270.351C13.3591 270.421 13.6519 270.351 13.8675 270.159C14.0909 269.966 14.1988 269.689 14.1757 269.396L14.0447 267.917C13.9754 267.131 14.2758 266.376 14.8689 265.86C15.4621 265.344 16.2478 265.144 17.0181 265.328L18.7513 265.737C19.0363 265.806 19.3214 265.729 19.5447 265.536C19.7604 265.344 19.876 265.066 19.8452 264.774C19.7604 263.926 20.1148 263.117 20.7926 262.601C21.4705 262.085 22.3487 261.962 23.1421 262.27L25.1295 263.033L24.5749 264.473L22.5875 263.711C22.2948 263.595 21.9789 263.641 21.7247 263.834C21.4705 264.026 21.3473 264.319 21.3781 264.635C21.4551 265.429 21.1547 266.176 20.5616 266.7C19.9684 267.224 19.175 267.424 18.4047 267.239L16.6715 266.831C16.3865 266.769 16.1014 266.838 15.878 267.023C15.6624 267.216 15.5468 267.485 15.5776 267.778L15.7086 269.257C15.7779 270.043 15.4698 270.813 14.8689 271.322C14.2681 271.83 13.4593 272.031 12.6967 271.838L10.0468 271.183C9.80028 271.122 9.54608 271.168 9.33039 271.314C9.1147 271.461 8.98375 271.676 8.94523 271.938L8.80658 273.017C8.71415 273.687 8.35209 274.295 7.78977 274.688C7.3892 274.981 6.90392 275.135 6.40321 275.135Z" fill="black"/>
<path d="M509.286 23.9175C509.263 23.9175 509.248 23.9175 509.225 23.9175C508.439 23.8944 507.761 23.4321 507.453 22.7157L506.205 19.8191C506.097 19.5726 505.881 19.5418 505.789 19.5418C505.789 19.5418 505.789 19.5418 505.781 19.5418C505.689 19.5418 505.466 19.5726 505.365 19.8268L503.971 23.3089L502.538 22.7388L503.933 19.2567C504.233 18.5018 504.949 18.0164 505.758 18.001C505.766 18.001 505.774 18.001 505.781 18.001C506.582 18.001 507.299 18.4709 507.615 19.2028L508.863 22.0994C508.963 22.3382 509.178 22.369 509.271 22.3767C509.356 22.3767 509.571 22.3613 509.687 22.1225L510.588 20.3198C510.888 19.7189 511.466 19.3107 512.129 19.2336C512.799 19.1489 513.454 19.4031 513.885 19.9193L515.372 21.6526C515.534 21.8375 515.734 21.8144 515.811 21.799C515.888 21.7836 516.08 21.7219 516.15 21.4831L517.051 18.471C517.251 17.8084 517.767 17.3 518.445 17.1151C519.115 16.9302 519.824 17.1074 520.325 17.585L523.237 20.3121C523.406 20.4739 523.606 20.4431 523.683 20.4123C523.76 20.3892 523.938 20.3121 523.992 20.081L524.562 17.6158C524.723 16.9302 525.209 16.3909 525.879 16.1675C526.549 15.9441 527.265 16.0905 527.797 16.545L529.884 18.3246C530.069 18.4787 530.262 18.4324 530.339 18.4016C530.416 18.3708 530.593 18.2861 530.632 18.0472L531.024 15.6052C531.14 14.881 531.648 14.2801 532.342 14.0413C533.043 13.8025 533.805 13.9643 534.345 14.465C534.545 14.6499 534.753 14.5806 534.837 14.5498C534.922 14.5113 535.107 14.4034 535.107 14.1338V12.3773H536.648V14.1338C536.648 14.9427 536.193 15.636 535.454 15.9595C534.714 16.2831 533.89 16.1444 533.297 15.5975C533.12 15.428 532.919 15.4742 532.842 15.505C532.765 15.5281 532.58 15.6206 532.542 15.8594L532.149 18.3015C532.034 19.0179 531.556 19.6034 530.87 19.8576C530.185 20.1118 529.445 19.9809 528.891 19.5032L526.803 17.7237C526.626 17.5773 526.441 17.6158 526.364 17.639C526.295 17.6621 526.118 17.7468 526.064 17.9702L525.494 20.4354C525.332 21.1364 524.823 21.6834 524.13 21.8991C523.437 22.1071 522.713 21.9376 522.181 21.4446L519.269 18.7175C519.1 18.5634 518.915 18.5942 518.838 18.6096C518.761 18.6327 518.584 18.7021 518.522 18.9178L517.621 21.9299C517.413 22.631 516.835 23.1548 516.127 23.3089C515.41 23.463 514.671 23.2087 514.201 22.6541L512.714 20.9207C512.568 20.7513 512.391 20.7589 512.314 20.7667C512.244 20.7744 512.059 20.8206 511.959 21.0132L511.058 22.8158C510.727 23.4938 510.049 23.9175 509.286 23.9175Z" fill="black"/>
<path d="M507.031 12.206L506.255 13.5369L513.607 17.8255L514.383 16.4946L507.031 12.206Z" fill="black"/>
<path d="M513.954 9.37196L513.206 10.7189L522.761 16.0272L523.51 14.6803L513.954 9.37196Z" fill="black"/>
<path d="M522.69 8.42532L522.03 9.81738L529.895 13.5484L530.555 12.1564L522.69 8.42532Z" fill="black"/>
<path d="M443.17 609.137L441.753 608.536L444.11 602.99C444.68 601.649 445.805 600.655 447.207 600.255C448.609 599.854 450.088 600.108 451.282 600.948L453.731 602.674C454.586 603.275 455.642 603.436 456.635 603.097C457.629 602.766 458.376 602.003 458.7 601.01L459.124 599.692C459.601 598.19 460.795 597.027 462.297 596.572C463.799 596.118 465.44 596.434 466.665 597.412L469.153 599.392C470.008 600.07 471.094 600.278 472.134 599.954C473.174 599.638 473.96 598.853 474.283 597.813L474.923 595.756C475.393 594.246 476.525 593.098 478.035 592.62C479.544 592.135 481.131 592.412 482.395 593.368L485.252 595.532C486.115 596.187 487.201 596.372 488.234 596.033C489.266 595.694 490.028 594.901 490.337 593.861L491.407 590.217C491.877 588.622 493.11 587.405 494.712 586.95C496.306 586.504 498.001 586.904 499.234 588.021L501.529 590.109C502.384 590.887 503.563 591.157 504.672 590.81C505.781 590.471 506.606 589.593 506.883 588.468C507.291 586.789 508.524 585.487 510.187 585.001C511.844 584.516 513.585 584.932 514.84 586.126L518.414 589.523L517.351 590.64L513.777 587.243C512.922 586.434 511.744 586.149 510.619 586.48C509.494 586.812 508.655 587.69 508.377 588.838C507.977 590.502 506.76 591.788 505.127 592.289C503.493 592.79 501.76 592.405 500.497 591.249L498.201 589.161C497.37 588.399 496.222 588.129 495.136 588.437C494.049 588.745 493.21 589.57 492.894 590.648L491.823 594.292C491.376 595.802 490.221 596.996 488.727 597.489C487.224 597.982 485.584 597.705 484.328 596.757L481.47 594.592C480.615 593.945 479.537 593.76 478.512 594.084C477.488 594.408 476.717 595.186 476.402 596.21L475.762 598.267C475.292 599.777 474.106 600.956 472.596 601.426C471.086 601.888 469.446 601.58 468.205 600.594L465.717 598.614C464.87 597.936 463.792 597.728 462.752 598.044C461.712 598.36 460.926 599.13 460.595 600.162L460.171 601.48C459.701 602.951 458.592 604.068 457.128 604.561C455.665 605.054 454.109 604.823 452.845 603.929L450.396 602.204C449.587 601.634 448.586 601.464 447.63 601.734C446.683 602.003 445.913 602.681 445.527 603.59L443.17 609.137Z" fill="black"/>
<path d="M392.83 570.965H391.29V563.577C391.29 562.56 390.766 561.651 389.896 561.135C389.025 560.619 387.97 560.604 387.084 561.089L383.826 562.884C382.454 563.639 380.829 563.616 379.489 562.815C378.141 562.021 377.339 560.611 377.339 559.048V556.505C377.339 555.542 376.877 554.68 376.076 554.14C375.275 553.601 374.297 553.509 373.411 553.886L369.228 555.635C367.872 556.205 366.332 556.058 365.115 555.242C363.89 554.425 363.158 553.062 363.158 551.598V550.758C363.158 549.795 362.704 548.94 361.902 548.401C361.101 547.862 360.131 547.762 359.245 548.131L355.239 549.772C353.883 550.327 352.351 550.173 351.141 549.356C349.924 548.54 349.2 547.184 349.2 545.72C349.2 544.749 348.738 543.887 347.929 543.355C347.12 542.816 346.142 542.731 345.256 543.109L342.144 544.426C340.942 544.934 339.594 544.88 338.439 544.287C337.283 543.694 336.451 542.631 336.166 541.36L335.766 539.603C335.573 538.771 335.034 538.078 334.279 537.701C333.516 537.315 332.638 537.292 331.86 537.639L326.329 540.066L325.713 538.656L331.244 536.229C332.446 535.705 333.809 535.736 334.98 536.329C336.151 536.922 336.99 537.993 337.283 539.272L337.684 541.029C337.869 541.853 338.408 542.538 339.155 542.924C339.902 543.309 340.78 543.34 341.558 543.016L344.671 541.699C346.026 541.121 347.567 541.267 348.799 542.084C350.024 542.901 350.756 544.264 350.756 545.736C350.756 546.698 351.21 547.554 352.012 548.093C352.813 548.632 353.776 548.725 354.669 548.362L358.675 546.722C360.031 546.167 361.563 546.321 362.773 547.138C363.99 547.954 364.714 549.31 364.714 550.774V551.613C364.714 552.576 365.176 553.439 365.977 553.979C366.778 554.518 367.757 554.61 368.643 554.233L372.825 552.484C374.181 551.922 375.722 552.068 376.939 552.877C378.164 553.693 378.888 555.057 378.888 556.521V559.063C378.888 560.08 379.412 560.989 380.282 561.505C381.153 562.021 382.208 562.037 383.094 561.551L386.352 559.756C387.723 559.001 389.349 559.024 390.689 559.826C392.037 560.619 392.838 562.029 392.838 563.593V570.965H392.83Z" fill="black"/>
<path d="M566.051 334.785C558.933 346.34 539.983 352.396 530.755 339.977C520.502 326.172 527.812 296.813 549.15 295.581C554.018 295.296 558.871 296.89 562.707 300.064C572.444 308.13 574.031 321.827 566.051 334.785Z" fill="black"/>
<path d="M541.716 319.485C539.097 327.582 536.093 336.534 532.326 331.942C529.985 329.084 528.56 322.213 530.231 315.68C531.548 310.534 535.23 305.596 538.889 303.007C540.784 301.667 542.703 301.359 544.235 302.175C548.149 304.248 544.651 310.403 541.716 319.485Z" fill="#74BAAB"/>
<path d="M393.785 94.6066C389.834 98.8359 385.389 103.466 383.564 98.6433C382.431 95.6466 382.963 90.3696 385.813 86.7565C388.054 83.9062 392.075 82.2884 395.519 82.2345C397.306 82.2113 398.854 82.8893 399.856 84.145C402.382 87.342 398.215 89.8611 393.785 94.6066Z" fill="#74BAAB"/>
<path d="M135.6 326.85C135.654 324.085 135.762 321.019 137.88 322.143C139.197 322.844 141.732 328.399 138.828 331.796C138.281 332.435 137.472 332.636 136.74 332.505C134.884 332.181 135.538 329.947 135.6 326.85Z" fill="#74BAAB"/>
<path d="M191.024 398.718C191.355 398.002 190.762 397.301 189.283 396.754C186.333 395.667 180.594 394.889 169.463 395.66C159.202 396.368 154.049 398.533 151.468 400.39C150.09 401.384 150.197 402.131 151.461 402.693C166.975 405.328 182.897 403.263 191.024 398.718Z" fill="black"/>
<path d="M460.68 332.744C459.393 327.004 455.857 309.37 455.819 309.193L457.329 308.893C457.367 309.07 460.895 326.681 462.182 332.405L460.68 332.744Z" fill="black"/>
<path d="M476.294 334.615C474.707 332.312 473.32 329.246 472.488 326.211C472.196 325.148 471.926 324.115 471.672 323.121C470.37 318.137 469.346 314.193 466.857 311.92L467.897 310.78C470.724 313.361 471.803 317.498 473.166 322.729C473.421 323.715 473.69 324.739 473.983 325.795C474.776 328.676 476.078 331.572 477.572 333.737L476.294 334.615Z" fill="black"/>
<path d="M483.604 334.97L482.064 334.924C482.102 333.714 481.987 332.135 481.871 330.463C481.755 328.745 481.617 326.804 481.617 324.924C481.617 321.496 482.464 318.153 483.881 315.965L485.176 316.804C483.912 318.753 483.157 321.781 483.157 324.924C483.157 326.742 483.281 328.583 483.404 330.355C483.527 332.065 483.643 333.683 483.604 334.97Z" fill="black"/>
<path d="M533.513 396.245C531.88 396.245 530.27 395.56 529.137 394.242L516.312 379.251L517.482 378.249L530.308 393.241C531.795 394.982 534.437 395.213 536.201 393.749L574.409 358.952C576.504 357.157 578.861 355.654 581.426 354.483L582.065 355.885C579.631 356.995 577.397 358.42 575.425 360.107L537.21 394.912C536.132 395.806 534.814 396.245 533.513 396.245Z" fill="black"/>
<path d="M536.055 463.26C529.468 463.26 522.528 460.417 516.535 452.821L501.776 436.482L502.916 435.449L517.713 451.827C528.544 465.548 542.602 462.828 551.345 456.349C558.34 451.165 568.076 442.876 580.286 431.705L581.326 432.846C569.078 444.047 559.295 452.374 552.262 457.59C547.81 460.879 542.078 463.26 536.055 463.26Z" fill="black"/>
<path d="M440.143 337.335C439.288 335.833 438.579 334.331 437.847 332.451L439.288 331.896C439.997 333.722 440.651 335.124 441.483 336.572L440.143 337.335Z" fill="black"/>
<path d="M449.217 334.639C447.969 332.304 445.627 327.466 443.964 321.319L445.45 320.918C447.068 326.92 449.356 331.634 450.573 333.907L449.217 334.639Z" fill="black"/>
<path d="M555.543 357.257C543.087 357.257 531.656 350.454 525.709 339.5L527.065 338.76C532.742 349.214 543.657 355.716 555.543 355.716V357.257Z" fill="black"/>
<path d="M346.712 125.421C345.487 125.421 343.985 124.759 342.39 123.48C340.634 122.078 337.915 119.882 335.688 118.095L336.659 116.893C338.885 118.688 341.597 120.876 343.353 122.278C344.994 123.596 346.588 124.181 347.32 123.734C347.983 123.334 348.137 121.97 347.759 119.983C347.305 117.61 347.42 115.707 348.114 114.313L349.493 114.998C349.123 115.746 348.784 117.163 349.269 119.69C349.801 122.463 349.415 124.266 348.114 125.052C347.705 125.298 347.228 125.421 346.712 125.421Z" fill="black"/>
<path d="M403.083 133.834L401.982 132.755L422.611 111.632C429.852 104.213 441.591 103.813 449.325 110.715L448.301 111.863C441.183 105.507 430.383 105.877 423.72 112.703L403.083 133.834Z" fill="black"/>
<path d="M449.046 137.698L428.115 158.731L429.207 159.818L450.138 138.785L449.046 137.698Z" fill="black"/>
<path d="M117.79 337.489L113.091 330.533C111.435 328.345 108.978 326.92 106.213 326.557C103.447 326.203 100.712 326.95 98.5171 328.668L97.5696 327.459C100.096 325.479 103.231 324.616 106.413 325.032C109.594 325.448 112.406 327.081 114.347 329.639L119.069 336.626L117.79 337.489Z" fill="black"/>
<path d="M143.51 374.769L142.598 392.711L144.136 392.789L145.049 374.847L143.51 374.769Z" fill="black"/>
<path d="M189.874 352.772L188.38 353.148L195.911 383.029L197.405 382.653L189.874 352.772Z" fill="black"/>
</svg>
