<svg width="29" height="31" viewBox="0 0 29 31" fill="none" xmlns="http://www.w3.org/2000/svg">
<path opacity="0.78" fill-rule="evenodd" clip-rule="evenodd" d="M13.3984 9.80889C13.4185 9.5484 13.6357 9.34726 13.8969 9.34726H14.3157C14.5726 9.34726 14.7876 9.54189 14.8132 9.79747L15.4353 16.0139L19.853 18.5367C20.0089 18.6257 20.105 18.7914 20.105 18.9708V19.3594C20.105 19.6891 19.7916 19.9285 19.4736 19.8418L13.1656 18.1226C12.9342 18.0595 12.7801 17.841 12.7985 17.6018L13.3984 9.80889Z" fill="#FF9066"/>
<path opacity="0.901274" fill-rule="evenodd" clip-rule="evenodd" d="M7.48469 0.984215C7.22049 0.669563 6.71041 0.789946 6.61505 1.18946L4.98036 8.03815C4.90266 8.36371 5.16085 8.67215 5.49523 8.65322L12.5453 8.25397C12.9563 8.23069 13.1647 7.74884 12.9 7.43366L11.0973 5.28664C12.2629 4.88855 13.499 4.68063 14.7682 4.68063C21.0316 4.68063 26.1091 9.75474 26.1091 16.014C26.1091 22.2732 21.0316 27.3473 14.7682 27.3473C8.50484 27.3473 3.42736 22.2732 3.42736 16.014C3.42736 14.9632 3.56974 13.9341 3.84738 12.9449L1.2781 12.2247C0.939824 13.4299 0.758911 14.7008 0.758911 16.014C0.758911 23.746 7.0311 30.014 14.7682 30.014C22.5054 30.014 28.7776 23.746 28.7776 16.014C28.7776 8.28198 22.5054 2.01396 14.7682 2.01396C12.822 2.01396 10.9685 2.41057 9.28416 3.12731L7.48469 0.984215Z" fill="#FF9066"/>
</svg>
