<svg width="29" height="28" viewBox="0 0 29 28" fill="none" xmlns="http://www.w3.org/2000/svg">
<path d="M3.28939 24.8889H26.6383C27.498 24.8889 28.1949 25.5853 28.1949 26.4444C28.1949 27.3036 27.498 28 26.6383 28H1.7328C0.873119 28 0.176208 27.3036 0.176208 26.4444V1.55556C0.176208 0.696446 0.873119 0 1.7328 0C2.59248 0 3.28939 0.696446 3.28939 1.55556V24.8889Z" fill="#4AD991"/>
<path opacity="0.5" d="M9.09472 18.175C8.50674 18.8018 7.52168 18.8335 6.89451 18.246C6.26734 17.6584 6.23556 16.674 6.82353 16.0472L12.6608 9.825C13.2294 9.21885 14.1743 9.16629 14.8068 9.70562L19.4139 13.6344L25.4165 6.03613C25.9492 5.36182 26.928 5.24675 27.6028 5.77909C28.2775 6.31143 28.3927 7.28961 27.86 7.96391L20.8553 16.8306C20.3082 17.5231 19.2948 17.6227 18.6232 17.05L13.9159 13.0358L9.09472 18.175Z" fill="#4AD991"/>
</svg>
