<svg width="33" height="24" viewBox="0 0 33 24" fill="none" xmlns="http://www.w3.org/2000/svg">
<path opacity="0.587821" fill-rule="evenodd" clip-rule="evenodd" d="M6.86853 5.33333C6.86853 8.27885 9.258 10.6667 12.2056 10.6667C15.1531 10.6667 17.5426 8.27885 17.5426 5.33333C17.5426 2.38781 15.1531 0 12.2056 0C9.258 0 6.86853 2.38781 6.86853 5.33333ZM20.2115 10.6667C20.2115 12.8758 22.0036 14.6667 24.2142 14.6667C26.4249 14.6667 28.217 12.8758 28.217 10.6667C28.217 8.45752 26.4249 6.66666 24.2142 6.66666C22.0036 6.66666 20.2115 8.45752 20.2115 10.6667Z" fill="#8280FF"/>
<path fill-rule="evenodd" clip-rule="evenodd" d="M12.1835 13.3333C5.88385 13.3333 0.715394 16.5687 0.198227 22.9323C0.170056 23.2789 0.833414 24 1.16803 24H23.2089C24.2112 24 24.2268 23.194 24.2112 22.9333C23.8202 16.3909 18.5717 13.3333 12.1835 13.3333ZM31.4937 24H26.3488C26.3488 20.9987 25.3565 18.2291 23.6819 16.0008C28.2271 16.0505 31.9383 18.3468 32.2176 23.2C32.2288 23.3955 32.2176 24 31.4937 24Z" fill="#8280FF"/>
</svg>
