<svg width="31" height="34" viewBox="0 0 31 34" fill="none" xmlns="http://www.w3.org/2000/svg">
<path fill-rule="evenodd" clip-rule="evenodd" d="M0.592926 11.3164L13.502 18.7645C13.641 18.8447 13.7868 18.9027 13.9351 18.9394V33.3847L1.5136 26.0385C0.942943 25.701 0.592926 25.0875 0.592926 24.4249V11.3164ZM30.6128 11.1185V24.4249C30.6128 25.0876 30.2628 25.701 29.6921 26.0385L17.2705 33.3847V18.8129C17.3008 18.7978 17.3308 18.7817 17.3605 18.7646L30.6128 11.1185Z" fill="#FEC53D"/>
<path opacity="0.499209" fill-rule="evenodd" clip-rule="evenodd" d="M0.998268 7.70145C1.15595 7.50247 1.35497 7.33429 1.587 7.21079L14.7208 0.22013C15.2721 -0.073336 15.9334 -0.073336 16.4848 0.22013L29.6185 7.21079C29.7974 7.30599 29.9567 7.42774 30.0925 7.56969L15.6927 15.8779C15.598 15.9325 15.5107 15.995 15.4312 16.0641C15.3516 15.995 15.2643 15.9325 15.1696 15.8779L0.998268 7.70145Z" fill="#FEC53D"/>
</svg>
